# 3ds Max Wavefront OBJ Exporter v0.97b - (c)2007 guruware
# File Created: 02.11.2012 17:51:58

#
# object Stone_coffin
#

v  66.5023 10.0000 38.0749
v  75.0930 0.0000 46.0565
v  75.0930 0.0000 -0.0000
v  66.5023 10.0000 -0.0000
v  60.9515 11.8171 32.2823
v  60.9515 11.8171 -0.0000
v  58.9316 15.6615 30.5198
v  58.9316 15.6615 -0.0000
v  61.2541 17.4786 -0.0000
v  61.2541 17.4786 33.0451
v  59.0000 24.8348 30.9081
v  59.0000 24.8348 -0.0000
v  55.0000 26.0000 26.9081
v  55.0000 26.0000 -0.0000
v  51.2141 53.6734 25.1873
v  51.2141 53.6734 -0.0000
v  45.3010 68.4202 14.7224
v  46.1010 62.1137 16.8353
v  46.1010 62.1137 -0.0000
v  45.3010 68.4202 -0.0000
v  44.7213 73.9840 8.4693
v  44.3938 75.5720 -0.0000
v  -54.7888 53.7198 28.9523
v  54.7888 53.7198 28.9523
v  53.9583 59.3560 28.5423
v  -53.9583 59.3560 28.5423
v  49.7168 62.1137 24.5067
v  36.8858 62.1136 24.5067
v  54.7888 53.7198 -0.0000
v  36.8858 72.3822 20.7658
v  48.3120 72.3822 20.7658
v  36.8858 79.8553 12.6497
v  47.3605 79.8553 12.6497
v  36.8858 83.1245 -0.0000
v  46.8424 83.1245 -0.0000
v  36.8858 70.5487 17.9854
v  36.8858 62.1179 20.7382
v  36.8858 76.6874 10.3901
v  36.8858 79.1245 -0.0000
v  48.2440 73.9840 8.4693
v  47.8907 75.5720 -0.0000
v  48.8694 68.4202 14.7224
v  49.7325 62.1137 16.8353
v  -36.8858 62.1136 24.5067
v  49.7325 62.1136 -0.0000
v  53.9583 59.3560 -0.0000
v  -75.0930 0.0000 46.0565
v  -75.0930 0.0000 -0.0000
v  -66.5023 10.0000 38.0749
v  -60.9515 11.8171 32.2823
v  -58.9316 15.6615 30.5198
v  -61.2541 17.4786 33.0451
v  -59.0000 24.8348 30.9081
v  -55.0000 26.0000 26.9081
v  -51.2141 53.6734 25.1873
v  -36.8858 70.5487 17.9854
v  -36.8858 62.1179 20.7382
v  -36.8858 76.6874 10.3901
v  -36.8858 79.1245 -0.0000
v  -66.5023 10.0000 -0.0000
v  -60.9515 11.8171 -0.0000
v  -58.9316 15.6615 -0.0000
v  -61.2541 17.4786 -0.0000
v  -59.0000 24.8348 -0.0000
v  -55.0000 26.0000 -0.0000
v  -51.2141 53.6734 -0.0000
v  -45.3010 68.4202 14.7224
v  -45.3010 68.4202 -0.0000
v  -46.1010 62.1137 -0.0000
v  -46.1010 62.1137 16.8353
v  -44.7213 73.9840 8.4693
v  -44.3938 75.5720 -0.0000
v  -49.7168 62.1137 24.5067
v  -54.7888 53.7198 -0.0000
v  -36.8858 72.3822 20.7658
v  -48.3120 72.3822 20.7658
v  -36.8858 79.8553 12.6497
v  -47.3605 79.8553 12.6497
v  -36.8858 83.1245 -0.0000
v  -46.8424 83.1245 -0.0000
v  -48.2440 73.9840 8.4693
v  -47.8907 75.5720 -0.0000
v  -48.8694 68.4202 14.7224
v  -49.7325 62.1137 16.8353
v  -49.7325 62.1136 -0.0000
v  -53.9583 59.3560 -0.0000
v  66.5023 10.0000 -38.0749
v  75.0930 0.0000 -46.0565
v  60.9515 11.8171 -32.2823
v  58.9316 15.6615 -30.5198
v  61.2541 17.4786 -33.0451
v  59.0000 24.8348 -30.9081
v  55.0000 26.0000 -26.9081
v  51.2141 53.6734 -25.1873
v  45.3010 68.4202 -14.7224
v  46.1010 62.1137 -16.8353
v  44.7213 73.9840 -8.4693
v  -54.7888 53.7198 -28.9523
v  -53.9583 59.3560 -28.5423
v  53.9583 59.3560 -28.5423
v  54.7888 53.7198 -28.9523
v  49.7168 62.1137 -24.5067
v  36.8858 62.1136 -24.5067
v  36.8858 72.3822 -20.7658
v  48.3120 72.3822 -20.7658
v  36.8858 79.8553 -12.6497
v  47.3605 79.8553 -12.6497
v  36.8858 70.5487 -17.9854
v  36.8858 62.1179 -20.7382
v  36.8858 76.6874 -10.3901
v  48.2440 73.9840 -8.4693
v  48.8694 68.4202 -14.7224
v  49.7325 62.1137 -16.8353
v  -36.8858 62.1136 -24.5067
v  -75.0930 0.0000 -46.0565
v  -66.5023 10.0000 -38.0749
v  -60.9515 11.8171 -32.2823
v  -58.9316 15.6615 -30.5198
v  -61.2541 17.4786 -33.0451
v  -59.0000 24.8348 -30.9081
v  -55.0000 26.0000 -26.9081
v  -51.2141 53.6734 -25.1873
v  -36.8858 70.5487 -17.9854
v  -36.8858 62.1179 -20.7382
v  -36.8858 76.6874 -10.3901
v  -45.3010 68.4202 -14.7224
v  -46.1010 62.1137 -16.8353
v  -44.7213 73.9840 -8.4693
v  -49.7168 62.1137 -24.5067
v  -36.8858 72.3822 -20.7658
v  -48.3120 72.3822 -20.7658
v  -36.8858 79.8553 -12.6497
v  -47.3605 79.8553 -12.6497
v  -48.2440 73.9840 -8.4693
v  -48.8694 68.4202 -14.7224
v  -49.7325 62.1137 -16.8353
# 136 vertices

vn 0.7585 0.6516 -0.0000
vn 0.3111 0.9504 -0.0000
vn 0.8852 0.4651 -0.0000
vn 0.6162 -0.7876 -0.0000
vn 0.9561 0.2930 -0.0000
vn 0.2797 0.9601 -0.0000
vn 0.9908 0.1355 -0.0000
vn 0.9925 0.1223 -0.0018
vn 0.9920 0.1258 -0.0000
vn 0.9928 0.1195 -0.0031
vn 0.9936 0.1131 -0.0063
vn 0.0000 0.0725 0.9974
vn 0.0000 0.8256 0.5642
vn 0.0130 -0.9999 -0.0000
vn 0.0063 -1.0000 0.0064
vn 0.0066 -1.0000 0.0061
vn 0.0000 0.5547 0.8321
vn 0.0000 0.3423 0.9396
vn 0.0000 0.5410 0.8410
vn 0.0000 0.8783 0.4781
vn 0.0000 0.8735 0.4868
vn 0.0000 1.0000 0.0005
vn -1.0000 0.0000 -0.0000
vn 0.9902 0.1393 0.0013
vn 0.9894 0.1447 -0.0075
vn 0.9895 0.1447 -0.0003
vn 0.9904 0.1383 0.0030
vn 0.9909 0.1346 0.0069
vn 0.9907 0.1363 0.0020
vn 0.5462 0.8376 0.0001
vn 0.5443 0.8389 0.0011
vn 0.5453 0.8382 0.0006
vn 0.0000 1.0000 -0.0000
vn 0.0000 -0.9829 -0.1843
vn 0.0000 -0.5644 -0.8255
vn 0.0000 -0.7471 -0.6647
vn 0.0000 -0.5367 -0.8438
vn 0.0000 -0.3177 -0.9482
vn 0.9893 0.1458 -0.0000
vn 0.5465 0.8375 -0.0000
vn 0.0000 -1.0000 -0.0000
vn 0.0000 0.6238 0.7816
vn 0.0000 0.9542 0.2993
vn 0.0000 0.4167 0.9090
vn 0.0000 -0.8117 0.5841
vn 0.0000 0.2790 0.9603
vn 0.0000 0.9601 0.2797
vn 0.0000 0.0621 0.9981
vn 0.0000 0.5674 0.8234
vn 0.0000 0.3104 0.9506
vn 0.0000 0.8982 0.4395
vn 0.0000 1.0000 0.0004
vn -0.0063 -1.0000 0.0064
vn -0.0066 -1.0000 0.0061
vn 0.0000 1.0000 0.0011
vn -0.7585 0.6516 -0.0000
vn -0.3111 0.9504 -0.0000
vn -0.8852 0.4651 -0.0000
vn -0.6162 -0.7876 -0.0000
vn -0.9561 0.2930 -0.0000
vn -0.2797 0.9601 -0.0000
vn -0.9908 0.1355 -0.0000
vn -0.9925 0.1223 -0.0018
vn -0.9928 0.1195 -0.0031
vn -0.9920 0.1258 -0.0000
vn -0.9936 0.1131 -0.0063
vn -0.0130 -0.9999 -0.0000
vn 1.0000 0.0000 -0.0000
vn -0.9902 0.1393 0.0013
vn -0.9904 0.1383 0.0030
vn -0.9895 0.1447 -0.0003
vn -0.9894 0.1447 -0.0075
vn -0.9909 0.1346 0.0069
vn -0.9907 0.1363 0.0020
vn -0.5462 0.8376 0.0001
vn -0.5453 0.8382 0.0006
vn -0.5443 0.8389 0.0011
vn 0.0000 -0.9019 -0.4320
vn 0.0000 -0.8932 -0.4496
vn -0.9893 0.1458 -0.0000
vn -0.5465 0.8375 -0.0000
vn 0.9925 0.1223 0.0018
vn 0.9928 0.1195 0.0031
vn 0.9936 0.1131 0.0063
vn 0.0000 0.0725 -0.9974
vn 0.0000 0.8256 -0.5642
vn 0.0066 -1.0000 -0.0061
vn 0.0063 -1.0000 -0.0064
vn 0.0000 0.5547 -0.8321
vn 0.0000 0.5410 -0.8410
vn 0.0000 0.3423 -0.9396
vn 0.0000 0.8783 -0.4781
vn 0.0000 0.8735 -0.4868
vn 0.0000 1.0000 0.0002
vn 0.9902 0.1393 -0.0013
vn 0.9904 0.1383 -0.0030
vn 0.9895 0.1447 0.0004
vn 0.9894 0.1447 0.0075
vn 0.9909 0.1346 -0.0069
vn 0.9907 0.1363 -0.0020
vn 0.5462 0.8376 -0.0001
vn 0.5453 0.8382 -0.0006
vn 0.5443 0.8389 -0.0011
vn 0.0000 -0.9829 0.1843
vn 0.0000 -0.5644 0.8255
vn 0.0000 -0.5367 0.8438
vn 0.0000 -0.7471 0.6647
vn 0.0000 -0.3177 0.9482
vn 0.0000 0.6238 -0.7816
vn 0.0000 0.9542 -0.2993
vn 0.0000 0.4167 -0.9090
vn 0.0000 -0.8117 -0.5841
vn 0.0000 0.2790 -0.9603
vn 0.0000 0.9601 -0.2797
vn 0.0000 0.0621 -0.9981
vn 0.0000 0.5674 -0.8234
vn 0.0000 0.3104 -0.9506
vn 0.0000 0.8982 -0.4395
vn 0.0000 1.0000 0.0007
vn -0.0063 -1.0000 -0.0064
vn -0.0066 -1.0000 -0.0061
vn 0.0000 1.0000 -0.0011
vn -0.9925 0.1223 0.0018
vn -0.9928 0.1195 0.0031
vn -0.9936 0.1131 0.0063
vn -0.9902 0.1393 -0.0013
vn -0.9894 0.1447 0.0075
vn -0.9895 0.1447 0.0004
vn -0.9904 0.1383 -0.0030
vn -0.9909 0.1346 -0.0069
vn -0.9907 0.1363 -0.0020
vn -0.5462 0.8376 -0.0001
vn -0.5443 0.8389 -0.0011
vn -0.5453 0.8382 -0.0006
vn 0.0000 -0.9019 0.4320
vn 0.0000 -0.8932 0.4496
# 136 vertex normals

vt 0.6851 0.8847 0.0000
vt 0.6525 0.9933 0.0000
vt 0.8406 0.9933 0.0000
vt 0.8406 0.8847 0.0000
vt 0.7088 0.8366 0.0000
vt 0.8406 0.8366 0.0000
vt 0.7160 0.8008 0.0000
vt 0.8406 0.8008 0.0000
vt 0.8406 0.7765 0.0000
vt 0.7056 0.7765 0.0000
vt 0.7144 0.7132 0.0000
vt 0.8406 0.7132 0.0000
vt 0.7307 0.6789 0.0000
vt 0.8406 0.6789 0.0000
vt 0.7378 0.4488 0.0000
vt 0.8407 0.4488 0.0000
vt 0.7764 0.2570 0.0000
vt 0.7699 0.3069 0.0000
vt 0.8386 0.2910 0.0000
vt 0.8350 0.2354 0.0000
vt 0.7965 0.2057 0.0000
vt 0.8275 0.1748 0.0000
vt 0.1971 0.5763 0.0000
vt 0.6447 0.5763 0.0000
vt 0.6417 0.6229 0.0000
vt 0.2001 0.6229 0.0000
vt 0.6283 0.6619 0.0000
vt 0.5743 0.6697 0.0000
vt 0.8407 0.4194 0.0000
vt 0.7224 0.4194 0.0000
vt 0.5812 0.7597 0.0000
vt 0.6252 0.7489 0.0000
vt 0.5858 0.8453 0.0000
vt 0.6266 0.8342 0.0000
vt 0.5909 0.9498 0.0000
vt 0.6346 0.9375 0.0000
vt 0.5705 0.7649 0.0000
vt 0.5692 0.6921 0.0000
vt 0.5714 0.8502 0.0000
vt 0.5723 0.9407 0.0000
vt 0.6550 0.8334 0.0000
vt 0.6642 0.9075 0.0000
vt 0.6534 0.7532 0.0000
vt 0.6579 0.6936 0.0000
vt 0.7714 0.3333 0.0000
vt 0.7402 0.3333 0.0000
vt 0.7241 0.3750 0.0000
vt 0.2674 0.6697 0.0000
vt 0.8399 0.3242 0.0000
vt 0.8193 0.1495 0.0000
vt 0.7871 0.1861 0.0000
vt 0.7639 0.2453 0.0000
vt 0.7546 0.3007 0.0000
vt 0.8407 0.3700 0.0000
vt 0.9956 0.9905 0.0000
vt 0.8462 0.9905 0.0000
vt 0.8462 0.0081 0.0000
vt 0.9956 0.0081 0.0000
vt 0.1141 0.0037 0.0000
vt 0.7276 0.0037 0.0000
vt 0.6925 0.1091 0.0000
vt 0.1492 0.1091 0.0000
vt 0.6699 0.1591 0.0000
vt 0.1719 0.1591 0.0000
vt 0.6616 0.1939 0.0000
vt 0.1802 0.1939 0.0000
vt 0.1707 0.2195 0.0000
vt 0.6711 0.2195 0.0000
vt 0.6619 0.2826 0.0000
vt 0.1799 0.2826 0.0000
vt 0.6456 0.3169 0.0000
vt 0.1962 0.3169 0.0000
vt 0.6301 0.5453 0.0000
vt 0.2117 0.5453 0.0000
vt 0.2713 0.7649 0.0000
vt 0.2726 0.6921 0.0000
vt 0.2703 0.8502 0.0000
vt 0.2694 0.9407 0.0000
vt 0.1590 0.8876 0.0000
vt 0.0035 0.8876 0.0000
vt 0.0035 0.9962 0.0000
vt 0.1916 0.9962 0.0000
vt 0.1354 0.8395 0.0000
vt 0.0035 0.8395 0.0000
vt 0.1282 0.8038 0.0000
vt 0.0035 0.8038 0.0000
vt 0.0035 0.7795 0.0000
vt 0.1385 0.7795 0.0000
vt 0.1298 0.7161 0.0000
vt 0.0035 0.7161 0.0000
vt 0.1134 0.6818 0.0000
vt 0.0035 0.6818 0.0000
vt 0.1064 0.4518 0.0000
vt 0.0035 0.4518 0.0000
vt 0.0678 0.2600 0.0000
vt 0.0093 0.2383 0.0000
vt 0.0056 0.2939 0.0000
vt 0.0743 0.3099 0.0000
vt 0.0477 0.2087 0.0000
vt 0.0167 0.1777 0.0000
vt 0.2134 0.6619 0.0000
vt 0.0035 0.4224 0.0000
vt 0.1218 0.4224 0.0000
vt 0.2606 0.7597 0.0000
vt 0.2166 0.7489 0.0000
vt 0.2559 0.8453 0.0000
vt 0.2151 0.8342 0.0000
vt 0.2509 0.9498 0.0000
vt 0.2071 0.9375 0.0000
vt 0.1867 0.8334 0.0000
vt 0.1775 0.9075 0.0000
vt 0.1884 0.7532 0.0000
vt 0.1839 0.6935 0.0000
vt 0.0728 0.3362 0.0000
vt 0.1201 0.3780 0.0000
vt 0.1040 0.3363 0.0000
vt 0.0043 0.3271 0.0000
vt 0.0571 0.1890 0.0000
vt 0.0249 0.1525 0.0000
vt 0.0804 0.2483 0.0000
vt 0.0896 0.3037 0.0000
vt 0.0035 0.3729 0.0000
# 122 texture coords

g Stone_coffin
s 1
f 1/1/1 2/2/1 3/3/1 4/4/1 
s 2
f 5/5/2 1/1/2 4/4/2 6/6/2 
s 1
f 7/7/3 5/5/3 6/6/3 8/8/3 
s 2
f 9/9/4 10/10/4 7/7/4 8/8/4 
s 1
f 11/11/5 10/10/5 9/9/5 12/12/5 
s 2
f 13/13/6 11/11/6 12/12/6 14/14/6 
s 1
f 15/15/7 13/13/7 14/14/7 16/16/7 
f 17/17/8 18/18/9 19/19/9 20/20/10 
f 21/21/11 17/17/8 20/20/10 22/22/11 
f 23/23/12 24/24/12 25/25/12 26/26/12 
s 2
f 27/27/13 28/28/13 25/25/13 
f 29/29/14 24/30/15 15/15/16 16/16/14 
s 1
f 30/31/17 28/28/18 27/27/18 31/32/19 
f 32/33/20 30/31/17 31/32/19 33/34/21 
f 34/35/22 32/33/20 33/34/21 35/36/22 
s 4
f 36/37/23 37/38/23 28/28/23 30/31/23 
f 38/39/23 36/37/23 30/31/23 32/33/23 
f 39/40/23 38/39/23 32/33/23 34/35/23 
f 40/41/24 41/42/25 35/36/26 33/34/27 
f 42/43/28 40/41/24 33/34/27 31/32/28 
f 43/44/29 42/43/28 31/32/28 27/27/29 
s 8
f 43/45/30 27/46/31 25/47/32 
s 2
f 26/26/13 25/25/13 28/28/13 44/48/13 
f 18/18/33 43/45/33 45/49/33 19/19/33 
f 21/21/34 22/22/34 41/50/34 40/51/34 
s 16
f 17/17/35 21/21/36 40/51/36 42/52/37 
f 18/18/38 17/17/35 42/52/37 43/53/38 
s 4
f 29/29/39 46/54/39 25/47/39 24/30/39 
s 8
f 46/54/40 45/49/40 43/45/30 25/47/32 
s 2
f 47/55/41 48/56/41 3/57/41 2/58/41 
s 4
f 47/59/42 2/60/42 1/61/42 49/62/42 
s 8
f 49/62/43 1/61/43 5/63/43 50/64/43 
s 4
f 50/64/44 5/63/44 7/65/44 51/66/44 
s 8
f 52/67/45 51/66/45 7/65/45 10/68/45 
s 4
f 52/67/46 10/68/46 11/69/46 53/70/46 
s 8
f 53/70/47 11/69/47 13/71/47 54/72/47 
s 4
f 54/72/48 13/71/48 15/73/48 55/74/48 
s 2
f 56/75/49 57/76/50 37/38/50 36/37/49 
f 58/77/51 56/75/49 36/37/49 38/39/51 
f 59/78/52 58/77/51 38/39/51 39/40/52 
f 23/23/53 55/74/54 15/73/16 24/24/15 
s 8
f 57/76/55 44/48/55 28/28/55 37/38/55 
s 1
f 49/79/56 60/80/56 48/81/56 47/82/56 
s 2
f 50/83/57 61/84/57 60/80/57 49/79/57 
s 1
f 51/85/58 62/86/58 61/84/58 50/83/58 
s 2
f 63/87/59 62/86/59 51/85/59 52/88/59 
s 1
f 53/89/60 64/90/60 63/87/60 52/88/60 
s 2
f 54/91/61 65/92/61 64/90/61 53/89/61 
s 1
f 55/93/62 66/94/62 65/92/62 54/91/62 
f 67/95/63 68/96/64 69/97/65 70/98/65 
f 71/99/66 72/100/66 68/96/64 67/95/63 
s 2
f 73/101/13 26/26/13 44/48/13 
f 74/102/67 66/94/67 55/93/54 23/103/53 
s 1
f 75/104/17 76/105/19 73/101/18 44/48/18 
f 77/106/20 78/107/21 76/105/19 75/104/17 
f 79/108/22 80/109/22 78/107/21 77/106/20 
s 4
f 56/75/68 75/104/68 44/48/68 57/76/68 
f 58/77/68 77/106/68 75/104/68 56/75/68 
f 59/78/68 79/108/68 77/106/68 58/77/68 
f 81/110/69 78/107/70 80/109/71 82/111/72 
f 83/112/73 76/105/73 78/107/70 81/110/69 
f 84/113/74 73/101/74 76/105/73 83/112/73 
s 8
f 84/114/75 26/115/76 73/116/77 
s 2
f 70/98/33 69/97/33 85/117/33 84/114/33 
s 16
f 71/99/78 81/118/79 82/119/34 72/100/34 
f 67/95/35 83/120/37 81/118/79 71/99/78 
f 70/98/38 84/121/38 83/120/37 67/95/35 
s 4
f 74/102/80 23/103/80 26/115/80 86/122/80 
s 8
f 86/122/81 26/115/76 84/114/75 85/117/81 
s 1
f 87/1/1 4/4/1 3/3/1 88/2/1 
s 2
f 89/5/2 6/6/2 4/4/2 87/1/2 
s 1
f 90/7/3 8/8/3 6/6/3 89/5/3 
s 2
f 9/9/4 8/8/4 90/7/4 91/10/4 
s 1
f 92/11/5 12/12/5 9/9/5 91/10/5 
s 2
f 93/13/6 14/14/6 12/12/6 92/11/6 
s 1
f 94/15/7 16/16/7 14/14/7 93/13/7 
f 95/17/82 20/20/83 19/19/9 96/18/9 
f 97/21/84 22/22/84 20/20/83 95/17/82 
f 98/23/85 99/26/85 100/25/85 101/24/85 
s 2
f 102/27/86 100/25/86 103/28/86 
f 29/29/14 16/16/14 94/15/87 101/30/88 
s 1
f 104/31/89 105/32/90 102/27/91 103/28/91 
f 106/33/92 107/34/93 105/32/90 104/31/89 
f 34/35/94 35/36/94 107/34/93 106/33/92 
s 4
f 108/37/23 104/31/23 103/28/23 109/38/23 
f 110/39/23 106/33/23 104/31/23 108/37/23 
f 39/40/23 34/35/23 106/33/23 110/39/23 
f 111/41/95 107/34/96 35/36/97 41/42/98 
f 112/43/99 105/32/99 107/34/96 111/41/95 
f 113/44/100 102/27/100 105/32/99 112/43/99 
s 8
f 113/45/101 100/47/102 102/46/103 
s 2
f 99/26/86 114/48/86 103/28/86 100/25/86 
f 96/18/33 19/19/33 45/49/33 113/45/33 
f 97/21/104 111/51/104 41/50/104 22/22/104 
s 16
f 95/17/105 112/52/106 111/51/107 97/21/107 
f 96/18/108 113/53/108 112/52/106 95/17/105 
s 4
f 29/29/39 101/30/39 100/47/39 46/54/39 
s 8
f 46/54/40 100/47/102 113/45/101 45/49/40 
s 2
f 115/55/41 88/58/41 3/57/41 48/56/41 
s 4
f 115/59/109 116/62/109 87/61/109 88/60/109 
s 8
f 116/62/110 117/64/110 89/63/110 87/61/110 
s 4
f 117/64/111 118/66/111 90/65/111 89/63/111 
s 8
f 119/67/112 91/68/112 90/65/112 118/66/112 
s 4
f 119/67/113 120/70/113 92/69/113 91/68/113 
s 8
f 120/70/114 121/72/114 93/71/114 92/69/114 
s 4
f 121/72/115 122/74/115 94/73/115 93/71/115 
s 2
f 123/75/116 108/37/116 109/38/117 124/76/117 
f 125/77/118 110/39/118 108/37/116 123/75/116 
f 59/78/119 39/40/119 110/39/118 125/77/118 
f 98/23/120 101/24/88 94/73/87 122/74/121 
s 8
f 124/76/122 109/38/122 103/28/122 114/48/122 
s 1
f 116/79/56 115/82/56 48/81/56 60/80/56 
s 2
f 117/83/57 116/79/57 60/80/57 61/84/57 
s 1
f 118/85/58 117/83/58 61/84/58 62/86/58 
s 2
f 63/87/59 119/88/59 118/85/59 62/86/59 
s 1
f 120/89/60 119/88/60 63/87/60 64/90/60 
s 2
f 121/91/61 120/89/61 64/90/61 65/92/61 
s 1
f 122/93/62 121/91/62 65/92/62 66/94/62 
f 126/95/123 127/98/65 69/97/65 68/96/124 
f 128/99/125 126/95/123 68/96/124 72/100/125 
s 2
f 129/101/86 114/48/86 99/26/86 
f 74/102/67 98/103/120 122/93/121 66/94/67 
s 1
f 130/104/89 114/48/91 129/101/91 131/105/90 
f 132/106/92 130/104/89 131/105/90 133/107/93 
f 79/108/94 132/106/92 133/107/93 80/109/94 
s 4
f 123/75/68 124/76/68 114/48/68 130/104/68 
f 125/77/68 123/75/68 130/104/68 132/106/68 
f 59/78/68 125/77/68 132/106/68 79/108/68 
f 134/110/126 82/111/127 80/109/128 133/107/129 
f 135/112/130 134/110/126 133/107/129 131/105/130 
f 136/113/131 135/112/130 131/105/130 129/101/131 
s 8
f 136/114/132 129/116/133 99/115/134 
s 2
f 127/98/33 136/114/33 85/117/33 69/97/33 
s 16
f 128/99/135 72/100/104 82/119/104 134/118/136 
f 126/95/105 128/99/135 134/118/136 135/120/106 
f 127/98/108 126/95/105 135/120/106 136/121/108 
s 4
f 74/102/80 86/122/80 99/115/80 98/103/80 
s 8
f 86/122/81 85/117/81 136/114/132 99/115/134 
# 130 polygons - 8 triangles

